<svg xmlns="http://www.w3.org/2000/svg"  viewBox="0 0 50 50" width="25px" height="25px"><path d="M 25 7 C 15.022 7 7 13.775 7 34.5 C 9.6 38.083 14.042828 40 17.173828 40 L 18.707031 40 C 20.581536 41.757066 22.807029 43 25 43 C 27.192971 43 29.418464 41.757066 31.292969 40 L 32.826172 40 C 35.957172 40 40.4 38.083 43 34.5 C 43 13.717 34.978 7 25 7 z M 29.171875 19.349609 C 30.278875 21.113609 32.23 23.716828 35 25.548828 L 35 31.193359 C 35 34.973359 29.86 42 25 42 C 20.14 42 15 34.973359 15 31.193359 L 15 27.046875 C 22.244 26.661875 26.907875 24.131609 29.171875 19.349609 z"/></svg>